<?xml version="1.0" encoding="UTF-8" standalone="no"?>
<!DOCTYPE svg PUBLIC "-//W3C//DTD SVG 1.1//EN"
 "http://www.w3.org/Graphics/SVG/1.1/DTD/svg11.dtd">
<!-- Generated by graphviz version 2.46.0 (20210118.1747)
 -->
<!-- Title: G Pages: 1 -->
<svg width="1444pt" height="116pt"
 viewBox="0.00 0.00 1444.44 116.00" xmlns="http://www.w3.org/2000/svg" xmlns:xlink="http://www.w3.org/1999/xlink">
<g id="graph0" class="graph" transform="scale(1 1) rotate(0) translate(4 112)">
<title>G</title>
<polygon fill="white" stroke="transparent" points="-4,4 -4,-112 1440.44,-112 1440.44,4 -4,4"/>
<!-- (3,1,1) -->
<g id="node1" class="node">
<title>(3,1,1)</title>
<ellipse fill="none" stroke="black" cx="208.45" cy="-90" rx="34.39" ry="18"/>
<text text-anchor="middle" x="208.45" y="-86.3" font-family="Times New Roman,serif" font-size="14.00">(3,1,1)</text>
</g>
<!-- (3,2,1) -->
<g id="node2" class="node">
<title>(3,2,1)</title>
<ellipse fill="none" stroke="black" cx="34.45" cy="-18" rx="34.39" ry="18"/>
<text text-anchor="middle" x="34.45" y="-14.3" font-family="Times New Roman,serif" font-size="14.00">(3,2,1)</text>
</g>
<!-- (3,1,1)&#45;&gt;(3,2,1) -->
<g id="edge1" class="edge">
<title>(3,1,1)&#45;&gt;(3,2,1)</title>
<path fill="none" stroke="black" d="M182.02,-78.37C152.17,-66.36 103.43,-46.75 70.19,-33.38"/>
<polygon fill="black" stroke="black" points="71.42,-30.1 60.84,-29.62 68.81,-36.6 71.42,-30.1"/>
</g>
<!-- (3,2,2) -->
<g id="node3" class="node">
<title>(3,2,2)</title>
<ellipse fill="none" stroke="black" cx="121.45" cy="-18" rx="34.39" ry="18"/>
<text text-anchor="middle" x="121.45" y="-14.3" font-family="Times New Roman,serif" font-size="14.00">(3,2,2)</text>
</g>
<!-- (3,1,1)&#45;&gt;(3,2,2) -->
<g id="edge2" class="edge">
<title>(3,1,1)&#45;&gt;(3,2,2)</title>
<path fill="none" stroke="black" d="M190.42,-74.5C178.06,-64.55 161.45,-51.19 147.63,-40.07"/>
<polygon fill="black" stroke="black" points="149.44,-37.03 139.45,-33.49 145.05,-42.48 149.44,-37.03"/>
</g>
<!-- (3,2,3) -->
<g id="node4" class="node">
<title>(3,2,3)</title>
<ellipse fill="none" stroke="black" cx="208.45" cy="-18" rx="34.39" ry="18"/>
<text text-anchor="middle" x="208.45" y="-14.3" font-family="Times New Roman,serif" font-size="14.00">(3,2,3)</text>
</g>
<!-- (3,1,1)&#45;&gt;(3,2,3) -->
<g id="edge3" class="edge">
<title>(3,1,1)&#45;&gt;(3,2,3)</title>
<path fill="none" stroke="black" d="M208.45,-71.7C208.45,-63.98 208.45,-54.71 208.45,-46.11"/>
<polygon fill="black" stroke="black" points="211.95,-46.1 208.45,-36.1 204.95,-46.1 211.95,-46.1"/>
</g>
<!-- (3,2,4) -->
<g id="node5" class="node">
<title>(3,2,4)</title>
<ellipse fill="none" stroke="black" cx="295.45" cy="-18" rx="34.39" ry="18"/>
<text text-anchor="middle" x="295.45" y="-14.3" font-family="Times New Roman,serif" font-size="14.00">(3,2,4)</text>
</g>
<!-- (3,1,1)&#45;&gt;(3,2,4) -->
<g id="edge4" class="edge">
<title>(3,1,1)&#45;&gt;(3,2,4)</title>
<path fill="none" stroke="black" d="M226.47,-74.5C238.84,-64.55 255.44,-51.19 269.26,-40.07"/>
<polygon fill="black" stroke="black" points="271.85,-42.48 277.44,-33.49 267.46,-37.03 271.85,-42.48"/>
</g>
<!-- (3,2,5) -->
<g id="node6" class="node">
<title>(3,2,5)</title>
<ellipse fill="none" stroke="black" cx="382.45" cy="-18" rx="34.39" ry="18"/>
<text text-anchor="middle" x="382.45" y="-14.3" font-family="Times New Roman,serif" font-size="14.00">(3,2,5)</text>
</g>
<!-- (3,1,1)&#45;&gt;(3,2,5) -->
<g id="edge5" class="edge">
<title>(3,1,1)&#45;&gt;(3,2,5)</title>
<path fill="none" stroke="black" d="M234.87,-78.37C264.73,-66.36 313.47,-46.75 346.7,-33.38"/>
<polygon fill="black" stroke="black" points="348.09,-36.6 356.06,-29.62 345.47,-30.1 348.09,-36.6"/>
</g>
<!-- (3,1,2) -->
<g id="node7" class="node">
<title>(3,1,2)</title>
<ellipse fill="none" stroke="black" cx="917.45" cy="-90" rx="34.39" ry="18"/>
<text text-anchor="middle" x="917.45" y="-86.3" font-family="Times New Roman,serif" font-size="14.00">(3,1,2)</text>
</g>
<!-- (3,2,6) -->
<g id="node8" class="node">
<title>(3,2,6)</title>
<ellipse fill="none" stroke="black" cx="469.45" cy="-18" rx="34.39" ry="18"/>
<text text-anchor="middle" x="469.45" y="-14.3" font-family="Times New Roman,serif" font-size="14.00">(3,2,6)</text>
</g>
<!-- (3,1,2)&#45;&gt;(3,2,6) -->
<g id="edge6" class="edge">
<title>(3,1,2)&#45;&gt;(3,2,6)</title>
<path fill="none" stroke="black" d="M883.14,-87.26C812.82,-83.09 647.63,-70.2 513.45,-36 510.62,-35.28 507.73,-34.43 504.84,-33.5"/>
<polygon fill="black" stroke="black" points="505.77,-30.12 495.17,-30.11 503.45,-36.72 505.77,-30.12"/>
</g>
<!-- (3,2,7) -->
<g id="node9" class="node">
<title>(3,2,7)</title>
<ellipse fill="none" stroke="black" cx="556.45" cy="-18" rx="34.39" ry="18"/>
<text text-anchor="middle" x="556.45" y="-14.3" font-family="Times New Roman,serif" font-size="14.00">(3,2,7)</text>
</g>
<!-- (3,1,2)&#45;&gt;(3,2,7) -->
<g id="edge7" class="edge">
<title>(3,1,2)&#45;&gt;(3,2,7)</title>
<path fill="none" stroke="black" d="M883.65,-85.63C825.16,-79.3 701.63,-63.7 600.45,-36 597.63,-35.23 594.75,-34.34 591.87,-33.39"/>
<polygon fill="black" stroke="black" points="592.81,-30.01 582.21,-29.96 590.46,-36.61 592.81,-30.01"/>
</g>
<!-- (3,2,8) -->
<g id="node10" class="node">
<title>(3,2,8)</title>
<ellipse fill="none" stroke="black" cx="643.45" cy="-18" rx="34.39" ry="18"/>
<text text-anchor="middle" x="643.45" y="-14.3" font-family="Times New Roman,serif" font-size="14.00">(3,2,8)</text>
</g>
<!-- (3,1,2)&#45;&gt;(3,2,8) -->
<g id="edge8" class="edge">
<title>(3,1,2)&#45;&gt;(3,2,8)</title>
<path fill="none" stroke="black" d="M885.45,-83.12C840.66,-74.56 756.98,-57.33 687.45,-36 684.82,-35.19 682.13,-34.31 679.43,-33.38"/>
<polygon fill="black" stroke="black" points="680.35,-29.99 669.76,-29.87 677.96,-36.57 680.35,-29.99"/>
</g>
<!-- (3,2,9) -->
<g id="node11" class="node">
<title>(3,2,9)</title>
<ellipse fill="none" stroke="black" cx="730.45" cy="-18" rx="34.39" ry="18"/>
<text text-anchor="middle" x="730.45" y="-14.3" font-family="Times New Roman,serif" font-size="14.00">(3,2,9)</text>
</g>
<!-- (3,1,2)&#45;&gt;(3,2,9) -->
<g id="edge9" class="edge">
<title>(3,1,2)&#45;&gt;(3,2,9)</title>
<path fill="none" stroke="black" d="M889.77,-79.03C860.72,-68.52 813.77,-51.39 773.45,-36 771.23,-35.15 768.96,-34.28 766.66,-33.39"/>
<polygon fill="black" stroke="black" points="767.83,-30.09 757.25,-29.71 765.29,-36.61 767.83,-30.09"/>
</g>
<!-- (3,2,10) -->
<g id="node12" class="node">
<title>(3,2,10)</title>
<ellipse fill="none" stroke="black" cx="821.45" cy="-18" rx="38.99" ry="18"/>
<text text-anchor="middle" x="821.45" y="-14.3" font-family="Times New Roman,serif" font-size="14.00">(3,2,10)</text>
</g>
<!-- (3,1,2)&#45;&gt;(3,2,10) -->
<g id="edge10" class="edge">
<title>(3,1,2)&#45;&gt;(3,2,10)</title>
<path fill="none" stroke="black" d="M898.02,-74.83C884.15,-64.72 865.28,-50.96 849.74,-39.63"/>
<polygon fill="black" stroke="black" points="851.65,-36.69 841.51,-33.63 847.52,-42.35 851.65,-36.69"/>
</g>
<!-- (3,2,11) -->
<g id="node13" class="node">
<title>(3,2,11)</title>
<ellipse fill="none" stroke="black" cx="917.45" cy="-18" rx="38.99" ry="18"/>
<text text-anchor="middle" x="917.45" y="-14.3" font-family="Times New Roman,serif" font-size="14.00">(3,2,11)</text>
</g>
<!-- (3,1,2)&#45;&gt;(3,2,11) -->
<g id="edge11" class="edge">
<title>(3,1,2)&#45;&gt;(3,2,11)</title>
<path fill="none" stroke="black" d="M917.45,-71.7C917.45,-63.98 917.45,-54.71 917.45,-46.11"/>
<polygon fill="black" stroke="black" points="920.95,-46.1 917.45,-36.1 913.95,-46.1 920.95,-46.1"/>
</g>
<!-- (3,2,12) -->
<g id="node14" class="node">
<title>(3,2,12)</title>
<ellipse fill="none" stroke="black" cx="1013.45" cy="-18" rx="38.99" ry="18"/>
<text text-anchor="middle" x="1013.45" y="-14.3" font-family="Times New Roman,serif" font-size="14.00">(3,2,12)</text>
</g>
<!-- (3,1,2)&#45;&gt;(3,2,12) -->
<g id="edge12" class="edge">
<title>(3,1,2)&#45;&gt;(3,2,12)</title>
<path fill="none" stroke="black" d="M936.87,-74.83C950.74,-64.72 969.61,-50.96 985.15,-39.63"/>
<polygon fill="black" stroke="black" points="987.37,-42.35 993.39,-33.63 983.25,-36.69 987.37,-42.35"/>
</g>
<!-- (3,2,13) -->
<g id="node15" class="node">
<title>(3,2,13)</title>
<ellipse fill="none" stroke="black" cx="1109.45" cy="-18" rx="38.99" ry="18"/>
<text text-anchor="middle" x="1109.45" y="-14.3" font-family="Times New Roman,serif" font-size="14.00">(3,2,13)</text>
</g>
<!-- (3,1,2)&#45;&gt;(3,2,13) -->
<g id="edge13" class="edge">
<title>(3,1,2)&#45;&gt;(3,2,13)</title>
<path fill="none" stroke="black" d="M944.96,-78.97C977.79,-67 1032.94,-46.89 1070.24,-33.29"/>
<polygon fill="black" stroke="black" points="1071.58,-36.53 1079.78,-29.82 1069.19,-29.95 1071.58,-36.53"/>
</g>
<!-- (3,2,14) -->
<g id="node16" class="node">
<title>(3,2,14)</title>
<ellipse fill="none" stroke="black" cx="1205.45" cy="-18" rx="38.99" ry="18"/>
<text text-anchor="middle" x="1205.45" y="-14.3" font-family="Times New Roman,serif" font-size="14.00">(3,2,14)</text>
</g>
<!-- (3,1,2)&#45;&gt;(3,2,14) -->
<g id="edge14" class="edge">
<title>(3,1,2)&#45;&gt;(3,2,14)</title>
<path fill="none" stroke="black" d="M949.59,-83.21C995.94,-74.56 1084.02,-57.02 1157.45,-36 1160.41,-35.15 1163.46,-34.22 1166.51,-33.24"/>
<polygon fill="black" stroke="black" points="1167.81,-36.5 1176.19,-30.01 1165.59,-29.86 1167.81,-36.5"/>
</g>
<!-- (3,2,15) -->
<g id="node17" class="node">
<title>(3,2,15)</title>
<ellipse fill="none" stroke="black" cx="1301.45" cy="-18" rx="38.99" ry="18"/>
<text text-anchor="middle" x="1301.45" y="-14.3" font-family="Times New Roman,serif" font-size="14.00">(3,2,15)</text>
</g>
<!-- (3,1,2)&#45;&gt;(3,2,15) -->
<g id="edge15" class="edge">
<title>(3,1,2)&#45;&gt;(3,2,15)</title>
<path fill="none" stroke="black" d="M951.24,-85.75C1012.28,-79.42 1144.69,-63.59 1253.45,-36 1256.57,-35.21 1259.79,-34.29 1262.99,-33.31"/>
<polygon fill="black" stroke="black" points="1264.1,-36.63 1272.52,-30.21 1261.93,-29.98 1264.1,-36.63"/>
</g>
<!-- (3,2,16) -->
<g id="node18" class="node">
<title>(3,2,16)</title>
<ellipse fill="none" stroke="black" cx="1397.45" cy="-18" rx="38.99" ry="18"/>
<text text-anchor="middle" x="1397.45" y="-14.3" font-family="Times New Roman,serif" font-size="14.00">(3,2,16)</text>
</g>
<!-- (3,1,2)&#45;&gt;(3,2,16) -->
<g id="edge16" class="edge">
<title>(3,1,2)&#45;&gt;(3,2,16)</title>
<path fill="none" stroke="black" d="M951.78,-87.34C1025.48,-83.21 1204,-70.24 1349.45,-36 1352.63,-35.25 1355.9,-34.36 1359.16,-33.39"/>
<polygon fill="black" stroke="black" points="1360.37,-36.68 1368.82,-30.29 1358.22,-30.01 1360.37,-36.68"/>
</g>
</g>
</svg>
