<?xml version="1.0" encoding="UTF-8" standalone="no"?>
<!DOCTYPE svg PUBLIC "-//W3C//DTD SVG 1.1//EN"
 "http://www.w3.org/Graphics/SVG/1.1/DTD/svg11.dtd">
<!-- Generated by graphviz version 2.46.0 (20210118.1747)
 -->
<!-- Title: G Pages: 1 -->
<svg width="936pt" height="758pt"
 viewBox="0.00 0.00 935.59 758.36" xmlns="http://www.w3.org/2000/svg" xmlns:xlink="http://www.w3.org/1999/xlink">
<g id="graph0" class="graph" transform="scale(1 1) rotate(0) translate(4 754.36)">
<title>G</title>
<polygon fill="white" stroke="transparent" points="-4,4 -4,-754.36 931.59,-754.36 931.59,4 -4,4"/>
<!-- SRGroup(3,1,1) -->
<g id="node1" class="node">
<title>SRGroup(3,1,1)</title>
<ellipse fill="none" stroke="black" cx="716.5" cy="-564.37" rx="70.39" ry="18"/>
<text text-anchor="middle" x="716.5" y="-560.67" font-family="Times New Roman,serif" font-size="14.00">SRGroup(3,1,1)</text>
</g>
<!-- (3,2,1) -->
<g id="node2" class="node">
<title>(3,2,1)</title>
<ellipse fill="none" stroke="black" cx="893.15" cy="-564.37" rx="34.39" ry="18"/>
<text text-anchor="middle" x="893.15" y="-560.67" font-family="Times New Roman,serif" font-size="14.00">(3,2,1)</text>
</g>
<!-- SRGroup(3,1,1)&#45;&gt;(3,2,1) -->
<g id="edge1" class="edge">
<title>SRGroup(3,1,1)&#45;&gt;(3,2,1)</title>
<path fill="none" stroke="black" d="M786.83,-564.37C807.51,-564.37 829.57,-564.37 848.2,-564.37"/>
<polygon fill="black" stroke="black" points="848.46,-567.87 858.46,-564.37 848.46,-560.87 848.46,-567.87"/>
</g>
<!-- (3,2,2) -->
<g id="node3" class="node">
<title>(3,2,2)</title>
<ellipse fill="none" stroke="black" cx="771.09" cy="-732.36" rx="34.39" ry="18"/>
<text text-anchor="middle" x="771.09" y="-728.66" font-family="Times New Roman,serif" font-size="14.00">(3,2,2)</text>
</g>
<!-- SRGroup(3,1,1)&#45;&gt;(3,2,2) -->
<g id="edge2" class="edge">
<title>SRGroup(3,1,1)&#45;&gt;(3,2,2)</title>
<path fill="none" stroke="black" d="M722.35,-582.34C731.87,-611.65 750.8,-669.91 762.06,-704.57"/>
<polygon fill="black" stroke="black" points="758.87,-706.08 765.29,-714.51 765.53,-703.92 758.87,-706.08"/>
</g>
<!-- (3,2,3) -->
<g id="node4" class="node">
<title>(3,2,3)</title>
<ellipse fill="none" stroke="black" cx="573.6" cy="-668.19" rx="34.39" ry="18"/>
<text text-anchor="middle" x="573.6" y="-664.49" font-family="Times New Roman,serif" font-size="14.00">(3,2,3)</text>
</g>
<!-- SRGroup(3,1,1)&#45;&gt;(3,2,3) -->
<g id="edge3" class="edge">
<title>SRGroup(3,1,1)&#45;&gt;(3,2,3)</title>
<path fill="none" stroke="black" d="M692.91,-581.51C668.01,-599.6 628.78,-628.1 602.15,-647.45"/>
<polygon fill="black" stroke="black" points="600.02,-644.67 593.99,-653.38 604.14,-650.33 600.02,-644.67"/>
</g>
<!-- (3,2,4) -->
<g id="node5" class="node">
<title>(3,2,4)</title>
<ellipse fill="none" stroke="black" cx="573.6" cy="-460.54" rx="34.39" ry="18"/>
<text text-anchor="middle" x="573.6" y="-456.84" font-family="Times New Roman,serif" font-size="14.00">(3,2,4)</text>
</g>
<!-- SRGroup(3,1,1)&#45;&gt;(3,2,4) -->
<g id="edge4" class="edge">
<title>SRGroup(3,1,1)&#45;&gt;(3,2,4)</title>
<path fill="none" stroke="black" d="M692.91,-547.22C668.01,-529.13 628.78,-500.63 602.15,-481.29"/>
<polygon fill="black" stroke="black" points="604.14,-478.4 593.99,-475.35 600.02,-484.06 604.14,-478.4"/>
</g>
<!-- (3,2,5) -->
<g id="node6" class="node">
<title>(3,2,5)</title>
<ellipse fill="none" stroke="black" cx="771.09" cy="-396.37" rx="34.39" ry="18"/>
<text text-anchor="middle" x="771.09" y="-392.67" font-family="Times New Roman,serif" font-size="14.00">(3,2,5)</text>
</g>
<!-- SRGroup(3,1,1)&#45;&gt;(3,2,5) -->
<g id="edge5" class="edge">
<title>SRGroup(3,1,1)&#45;&gt;(3,2,5)</title>
<path fill="none" stroke="black" d="M722.35,-546.39C731.87,-517.08 750.8,-458.82 762.06,-424.16"/>
<polygon fill="black" stroke="black" points="765.53,-424.81 765.29,-414.22 758.87,-422.65 765.53,-424.81"/>
</g>
<!-- SRGroup(3,1,2) -->
<g id="node7" class="node">
<title>SRGroup(3,1,2)</title>
<ellipse fill="none" stroke="black" cx="288.5" cy="-271.37" rx="70.39" ry="18"/>
<text text-anchor="middle" x="288.5" y="-267.67" font-family="Times New Roman,serif" font-size="14.00">SRGroup(3,1,2)</text>
</g>
<!-- (3,2,6) -->
<g id="node8" class="node">
<title>(3,2,6)</title>
<ellipse fill="none" stroke="black" cx="545.31" cy="-271.37" rx="34.39" ry="18"/>
<text text-anchor="middle" x="545.31" y="-267.67" font-family="Times New Roman,serif" font-size="14.00">(3,2,6)</text>
</g>
<!-- SRGroup(3,1,2)&#45;&gt;(3,2,6) -->
<g id="edge6" class="edge">
<title>SRGroup(3,1,2)&#45;&gt;(3,2,6)</title>
<path fill="none" stroke="black" d="M359.02,-271.37C404.27,-271.37 461.65,-271.37 500.69,-271.37"/>
<polygon fill="black" stroke="black" points="500.7,-274.87 510.7,-271.37 500.7,-267.87 500.7,-274.87"/>
</g>
<!-- (3,2,7) -->
<g id="node9" class="node">
<title>(3,2,7)</title>
<ellipse fill="none" stroke="black" cx="507.61" cy="-405.3" rx="34.39" ry="18"/>
<text text-anchor="middle" x="507.61" y="-401.6" font-family="Times New Roman,serif" font-size="14.00">(3,2,7)</text>
</g>
<!-- SRGroup(3,1,2)&#45;&gt;(3,2,7) -->
<g id="edge7" class="edge">
<title>SRGroup(3,1,2)&#45;&gt;(3,2,7)</title>
<path fill="none" stroke="black" d="M315.81,-288.06C356.62,-313 433.3,-359.87 476.31,-386.16"/>
<polygon fill="black" stroke="black" points="474.6,-389.22 484.95,-391.45 478.25,-383.24 474.6,-389.22"/>
</g>
<!-- (3,2,8) -->
<g id="node10" class="node">
<title>(3,2,8)</title>
<ellipse fill="none" stroke="black" cx="405.61" cy="-499.91" rx="34.39" ry="18"/>
<text text-anchor="middle" x="405.61" y="-496.21" font-family="Times New Roman,serif" font-size="14.00">(3,2,8)</text>
</g>
<!-- SRGroup(3,1,2)&#45;&gt;(3,2,8) -->
<g id="edge8" class="edge">
<title>SRGroup(3,1,2)&#45;&gt;(3,2,8)</title>
<path fill="none" stroke="black" d="M297.69,-289.3C318.22,-329.37 367.9,-426.32 392.02,-473.39"/>
<polygon fill="black" stroke="black" points="388.95,-475.07 396.62,-482.38 395.18,-471.88 388.95,-475.07"/>
</g>
<!-- (3,2,9) -->
<g id="node11" class="node">
<title>(3,2,9)</title>
<ellipse fill="none" stroke="black" cx="269.22" cy="-527.44" rx="34.39" ry="18"/>
<text text-anchor="middle" x="269.22" y="-523.74" font-family="Times New Roman,serif" font-size="14.00">(3,2,9)</text>
</g>
<!-- SRGroup(3,1,2)&#45;&gt;(3,2,9) -->
<g id="edge9" class="edge">
<title>SRGroup(3,1,2)&#45;&gt;(3,2,9)</title>
<path fill="none" stroke="black" d="M287.15,-289.37C283.84,-333.36 275.31,-446.54 271.33,-499.43"/>
<polygon fill="black" stroke="black" points="267.84,-499.22 270.58,-509.46 274.82,-499.75 267.84,-499.22"/>
</g>
<!-- (3,2,10) -->
<g id="node12" class="node">
<title>(3,2,10)</title>
<ellipse fill="none" stroke="black" cx="134.83" cy="-477.11" rx="38.99" ry="18"/>
<text text-anchor="middle" x="134.83" y="-473.41" font-family="Times New Roman,serif" font-size="14.00">(3,2,10)</text>
</g>
<!-- SRGroup(3,1,2)&#45;&gt;(3,2,10) -->
<g id="edge10" class="edge">
<title>SRGroup(3,1,2)&#45;&gt;(3,2,10)</title>
<path fill="none" stroke="black" d="M275.14,-289.26C247.74,-325.94 185.16,-409.72 153.67,-451.89"/>
<polygon fill="black" stroke="black" points="150.81,-449.87 147.63,-459.98 156.41,-454.06 150.81,-449.87"/>
</g>
<!-- (3,2,11) -->
<g id="node13" class="node">
<title>(3,2,11)</title>
<ellipse fill="none" stroke="black" cx="46.85" cy="-358.26" rx="38.99" ry="18"/>
<text text-anchor="middle" x="46.85" y="-354.56" font-family="Times New Roman,serif" font-size="14.00">(3,2,11)</text>
</g>
<!-- SRGroup(3,1,2)&#45;&gt;(3,2,11) -->
<g id="edge11" class="edge">
<title>SRGroup(3,1,2)&#45;&gt;(3,2,11)</title>
<path fill="none" stroke="black" d="M247.51,-286.11C202.82,-302.18 131.75,-327.73 87.28,-343.72"/>
<polygon fill="black" stroke="black" points="85.9,-340.5 77.67,-347.18 88.26,-347.09 85.9,-340.5"/>
</g>
<!-- (3,2,12) -->
<g id="node14" class="node">
<title>(3,2,12)</title>
<ellipse fill="none" stroke="black" cx="39" cy="-210.6" rx="38.99" ry="18"/>
<text text-anchor="middle" x="39" y="-206.9" font-family="Times New Roman,serif" font-size="14.00">(3,2,12)</text>
</g>
<!-- SRGroup(3,1,2)&#45;&gt;(3,2,12) -->
<g id="edge12" class="edge">
<title>SRGroup(3,1,2)&#45;&gt;(3,2,12)</title>
<path fill="none" stroke="black" d="M237.41,-258.92C192.14,-247.9 126.7,-231.96 83.53,-221.45"/>
<polygon fill="black" stroke="black" points="84.14,-217.99 73.59,-219.03 82.48,-224.79 84.14,-217.99"/>
</g>
<!-- (3,2,13) -->
<g id="node15" class="node">
<title>(3,2,13)</title>
<ellipse fill="none" stroke="black" cx="113.87" cy="-83.09" rx="38.99" ry="18"/>
<text text-anchor="middle" x="113.87" y="-79.39" font-family="Times New Roman,serif" font-size="14.00">(3,2,13)</text>
</g>
<!-- SRGroup(3,1,2)&#45;&gt;(3,2,13) -->
<g id="edge13" class="edge">
<title>SRGroup(3,1,2)&#45;&gt;(3,2,13)</title>
<path fill="none" stroke="black" d="M272.08,-253.65C240.68,-219.81 172.14,-145.91 136.46,-107.45"/>
<polygon fill="black" stroke="black" points="138.74,-104.75 129.37,-99.8 133.61,-109.51 138.74,-104.75"/>
</g>
<!-- (3,2,14) -->
<g id="node16" class="node">
<title>(3,2,14)</title>
<ellipse fill="none" stroke="black" cx="246.64" cy="-18" rx="38.99" ry="18"/>
<text text-anchor="middle" x="246.64" y="-14.3" font-family="Times New Roman,serif" font-size="14.00">(3,2,14)</text>
</g>
<!-- SRGroup(3,1,2)&#45;&gt;(3,2,14) -->
<g id="edge14" class="edge">
<title>SRGroup(3,1,2)&#45;&gt;(3,2,14)</title>
<path fill="none" stroke="black" d="M285.49,-253.14C278.27,-209.41 259.9,-98.26 251.27,-45.98"/>
<polygon fill="black" stroke="black" points="254.71,-45.35 249.63,-36.06 247.8,-46.49 254.71,-45.35"/>
</g>
<!-- (3,2,15) -->
<g id="node17" class="node">
<title>(3,2,15)</title>
<ellipse fill="none" stroke="black" cx="393.3" cy="-36.92" rx="38.99" ry="18"/>
<text text-anchor="middle" x="393.3" y="-33.22" font-family="Times New Roman,serif" font-size="14.00">(3,2,15)</text>
</g>
<!-- SRGroup(3,1,2)&#45;&gt;(3,2,15) -->
<g id="edge15" class="edge">
<title>SRGroup(3,1,2)&#45;&gt;(3,2,15)</title>
<path fill="none" stroke="black" d="M296.55,-253.36C314.85,-212.43 359.63,-112.23 381.25,-63.89"/>
<polygon fill="black" stroke="black" points="384.48,-65.23 385.37,-54.67 378.09,-62.37 384.48,-65.23"/>
</g>
<!-- (3,2,16) -->
<g id="node18" class="node">
<title>(3,2,16)</title>
<ellipse fill="none" stroke="black" cx="505.21" cy="-133.57" rx="38.99" ry="18"/>
<text text-anchor="middle" x="505.21" y="-129.87" font-family="Times New Roman,serif" font-size="14.00">(3,2,16)</text>
</g>
<!-- SRGroup(3,1,2)&#45;&gt;(3,2,16) -->
<g id="edge16" class="edge">
<title>SRGroup(3,1,2)&#45;&gt;(3,2,16)</title>
<path fill="none" stroke="black" d="M315.08,-254.47C355.07,-229.04 430.59,-181.02 473.43,-153.78"/>
<polygon fill="black" stroke="black" points="475.49,-156.62 482.05,-148.3 471.74,-150.71 475.49,-156.62"/>
</g>
</g>
</svg>
