<?xml version="1.0" encoding="UTF-8" standalone="no"?>
<!DOCTYPE svg PUBLIC "-//W3C//DTD SVG 1.1//EN"
 "http://www.w3.org/Graphics/SVG/1.1/DTD/svg11.dtd">
<!-- Generated by graphviz version 2.46.0 (20210118.1747)
 -->
<!-- Title: G Pages: 1 -->
<svg width="456pt" height="370pt"
 viewBox="0.00 0.00 456.32 369.50" xmlns="http://www.w3.org/2000/svg" xmlns:xlink="http://www.w3.org/1999/xlink">
<g id="graph0" class="graph" transform="scale(1 1) rotate(0) translate(4 365.5)">
<title>G</title>
<polygon fill="white" stroke="transparent" points="-4,4 -4,-365.5 452.32,-365.5 452.32,4 -4,4"/>
<!-- SRGroup(3,1,1) -->
<g id="node1" class="node">
<title>SRGroup(3,1,1)</title>
<ellipse fill="none" stroke="black" cx="334.68" cy="-273.9" rx="70.39" ry="18"/>
<text text-anchor="middle" x="334.68" y="-270.2" font-family="Times New Roman,serif" font-size="14.00">SRGroup(3,1,1)</text>
</g>
<!-- (3,2,1) -->
<g id="node2" class="node">
<title>(3,2,1)</title>
<ellipse fill="none" stroke="black" cx="259.45" cy="-243.27" rx="34.39" ry="18"/>
<text text-anchor="middle" x="259.45" y="-239.57" font-family="Times New Roman,serif" font-size="14.00">(3,2,1)</text>
</g>
<!-- SRGroup(3,1,1)&#45;&gt;(3,2,1) -->
<g id="edge1" class="edge">
<title>SRGroup(3,1,1)&#45;&gt;(3,2,1)</title>
<path fill="none" stroke="black" d="M297.06,-258.58C296.85,-258.5 296.64,-258.41 296.43,-258.33"/>
<polygon fill="black" stroke="black" points="297.61,-255.03 287.03,-254.5 294.98,-261.51 297.61,-255.03"/>
</g>
<!-- (3,2,2) -->
<g id="node3" class="node">
<title>(3,2,2)</title>
<ellipse fill="none" stroke="black" cx="341.39" cy="-193" rx="34.39" ry="18"/>
<text text-anchor="middle" x="341.39" y="-189.3" font-family="Times New Roman,serif" font-size="14.00">(3,2,2)</text>
</g>
<!-- SRGroup(3,1,1)&#45;&gt;(3,2,2) -->
<g id="edge2" class="edge">
<title>SRGroup(3,1,1)&#45;&gt;(3,2,2)</title>
<path fill="none" stroke="black" d="M336.2,-255.54C337.05,-245.33 338.12,-232.42 339.07,-220.98"/>
<polygon fill="black" stroke="black" points="342.56,-221.26 339.9,-211.01 335.58,-220.68 342.56,-221.26"/>
</g>
<!-- (3,2,3) -->
<g id="node4" class="node">
<title>(3,2,3)</title>
<ellipse fill="none" stroke="black" cx="376.69" cy="-343.5" rx="34.39" ry="18"/>
<text text-anchor="middle" x="376.69" y="-339.8" font-family="Times New Roman,serif" font-size="14.00">(3,2,3)</text>
</g>
<!-- SRGroup(3,1,1)&#45;&gt;(3,2,3) -->
<g id="edge3" class="edge">
<title>SRGroup(3,1,1)&#45;&gt;(3,2,3)</title>
<path fill="none" stroke="black" d="M345.5,-291.82C350.14,-299.51 355.66,-308.65 360.75,-317.1"/>
<polygon fill="black" stroke="black" points="357.89,-319.13 366.05,-325.88 363.88,-315.51 357.89,-319.13"/>
</g>
<!-- (3,2,4) -->
<g id="node5" class="node">
<title>(3,2,4)</title>
<ellipse fill="none" stroke="black" cx="413.87" cy="-255.87" rx="34.39" ry="18"/>
<text text-anchor="middle" x="413.87" y="-252.17" font-family="Times New Roman,serif" font-size="14.00">(3,2,4)</text>
</g>
<!-- SRGroup(3,1,1)&#45;&gt;(3,2,4) -->
<g id="edge4" class="edge">
<title>SRGroup(3,1,1)&#45;&gt;(3,2,4)</title>
<path fill="none" stroke="black" d="M387.5,-261.87C387.56,-261.86 387.61,-261.85 387.67,-261.83"/>
<polygon fill="black" stroke="black" points="378.87,-267.43 387.84,-261.79 377.31,-260.61 378.87,-267.43"/>
</g>
<!-- (3,2,5) -->
<g id="node6" class="node">
<title>(3,2,5)</title>
<ellipse fill="none" stroke="black" cx="282.1" cy="-335.9" rx="34.39" ry="18"/>
<text text-anchor="middle" x="282.1" y="-332.2" font-family="Times New Roman,serif" font-size="14.00">(3,2,5)</text>
</g>
<!-- SRGroup(3,1,1)&#45;&gt;(3,2,5) -->
<g id="edge5" class="edge">
<title>SRGroup(3,1,1)&#45;&gt;(3,2,5)</title>
<path fill="none" stroke="black" d="M319.75,-291.5C314.54,-297.64 308.6,-304.65 302.99,-311.26"/>
<polygon fill="black" stroke="black" points="299.96,-309.43 296.16,-319.32 305.29,-313.96 299.96,-309.43"/>
</g>
<!-- SRGroup(3,1,2) -->
<g id="node7" class="node">
<title>SRGroup(3,1,2)</title>
<ellipse fill="none" stroke="black" cx="125.85" cy="-103.66" rx="70.39" ry="18"/>
<text text-anchor="middle" x="125.85" y="-99.96" font-family="Times New Roman,serif" font-size="14.00">SRGroup(3,1,2)</text>
</g>
<!-- (3,2,6) -->
<g id="node8" class="node">
<title>(3,2,6)</title>
<ellipse fill="none" stroke="black" cx="53.37" cy="-147.82" rx="34.39" ry="18"/>
<text text-anchor="middle" x="53.37" y="-144.12" font-family="Times New Roman,serif" font-size="14.00">(3,2,6)</text>
</g>
<!-- SRGroup(3,1,2)&#45;&gt;(3,2,6) -->
<g id="edge6" class="edge">
<title>SRGroup(3,1,2)&#45;&gt;(3,2,6)</title>
<path fill="none" stroke="black" d="M98.45,-120.36C93.95,-123.1 89.27,-125.95 84.68,-128.74"/>
<polygon fill="black" stroke="black" points="82.81,-125.79 76.09,-133.98 86.45,-131.77 82.81,-125.79"/>
</g>
<!-- (3,2,7) -->
<g id="node9" class="node">
<title>(3,2,7)</title>
<ellipse fill="none" stroke="black" cx="182.47" cy="-41.11" rx="34.39" ry="18"/>
<text text-anchor="middle" x="182.47" y="-37.41" font-family="Times New Roman,serif" font-size="14.00">(3,2,7)</text>
</g>
<!-- SRGroup(3,1,2)&#45;&gt;(3,2,7) -->
<g id="edge7" class="edge">
<title>SRGroup(3,1,2)&#45;&gt;(3,2,7)</title>
<path fill="none" stroke="black" d="M141.92,-85.9C147.75,-79.47 154.43,-72.08 160.67,-65.19"/>
<polygon fill="black" stroke="black" points="163.6,-67.17 167.71,-57.41 158.41,-62.47 163.6,-67.17"/>
</g>
<!-- (3,2,8) -->
<g id="node10" class="node">
<title>(3,2,8)</title>
<ellipse fill="none" stroke="black" cx="136.15" cy="-188.69" rx="34.39" ry="18"/>
<text text-anchor="middle" x="136.15" y="-184.99" font-family="Times New Roman,serif" font-size="14.00">(3,2,8)</text>
</g>
<!-- SRGroup(3,1,2)&#45;&gt;(3,2,8) -->
<g id="edge8" class="edge">
<title>SRGroup(3,1,2)&#45;&gt;(3,2,8)</title>
<path fill="none" stroke="black" d="M128.03,-121.7C129.4,-132.97 131.19,-147.72 132.74,-160.52"/>
<polygon fill="black" stroke="black" points="129.29,-161.18 133.97,-170.68 136.24,-160.33 129.29,-161.18"/>
</g>
<!-- (3,2,9) -->
<g id="node11" class="node">
<title>(3,2,9)</title>
<ellipse fill="none" stroke="black" cx="180.9" cy="-169.99" rx="34.39" ry="18"/>
<text text-anchor="middle" x="180.9" y="-166.29" font-family="Times New Roman,serif" font-size="14.00">(3,2,9)</text>
</g>
<!-- SRGroup(3,1,2)&#45;&gt;(3,2,9) -->
<g id="edge9" class="edge">
<title>SRGroup(3,1,2)&#45;&gt;(3,2,9)</title>
<path fill="none" stroke="black" d="M140.6,-121.44C146.65,-128.73 153.76,-137.29 160.31,-145.18"/>
<polygon fill="black" stroke="black" points="157.79,-147.62 166.87,-153.08 163.17,-143.15 157.79,-147.62"/>
</g>
<!-- (3,2,10) -->
<g id="node12" class="node">
<title>(3,2,10)</title>
<ellipse fill="none" stroke="black" cx="87.89" cy="-181.58" rx="38.99" ry="18"/>
<text text-anchor="middle" x="87.89" y="-177.88" font-family="Times New Roman,serif" font-size="14.00">(3,2,10)</text>
</g>
<!-- SRGroup(3,1,2)&#45;&gt;(3,2,10) -->
<g id="edge10" class="edge">
<title>SRGroup(3,1,2)&#45;&gt;(3,2,10)</title>
<path fill="none" stroke="black" d="M117.04,-121.73C112.27,-131.54 106.27,-143.85 100.96,-154.75"/>
<polygon fill="black" stroke="black" points="97.75,-153.35 96.51,-163.87 104.04,-156.42 97.75,-153.35"/>
</g>
<!-- (3,2,11) -->
<g id="node13" class="node">
<title>(3,2,11)</title>
<ellipse fill="none" stroke="black" cx="207.39" cy="-129.47" rx="38.99" ry="18"/>
<text text-anchor="middle" x="207.39" y="-125.77" font-family="Times New Roman,serif" font-size="14.00">(3,2,11)</text>
</g>
<!-- SRGroup(3,1,2)&#45;&gt;(3,2,11) -->
<g id="edge11" class="edge">
<title>SRGroup(3,1,2)&#45;&gt;(3,2,11)</title>
<path fill="none" stroke="black" d="M170.43,-117.77C170.53,-117.8 170.62,-117.83 170.71,-117.86"/>
<polygon fill="black" stroke="black" points="164.28,-119.5 174.87,-119.18 166.39,-112.82 164.28,-119.5"/>
</g>
<!-- (3,2,12) -->
<g id="node14" class="node">
<title>(3,2,12)</title>
<ellipse fill="none" stroke="black" cx="140.41" cy="-18" rx="38.99" ry="18"/>
<text text-anchor="middle" x="140.41" y="-14.3" font-family="Times New Roman,serif" font-size="14.00">(3,2,12)</text>
</g>
<!-- SRGroup(3,1,2)&#45;&gt;(3,2,12) -->
<g id="edge12" class="edge">
<title>SRGroup(3,1,2)&#45;&gt;(3,2,12)</title>
<path fill="none" stroke="black" d="M128.94,-85.5C130.87,-74.14 133.39,-59.27 135.59,-46.38"/>
<polygon fill="black" stroke="black" points="139.1,-46.59 137.33,-36.14 132.2,-45.41 139.1,-46.59"/>
</g>
<!-- (3,2,13) -->
<g id="node15" class="node">
<title>(3,2,13)</title>
<ellipse fill="none" stroke="black" cx="39" cy="-101.63" rx="38.99" ry="18"/>
<text text-anchor="middle" x="39" y="-97.93" font-family="Times New Roman,serif" font-size="14.00">(3,2,13)</text>
</g>
<!-- SRGroup(3,1,2)&#45;&gt;(3,2,13) -->
<g id="edge13" class="edge">
<title>SRGroup(3,1,2)&#45;&gt;(3,2,13)</title>
<path fill="none" stroke="black" d="M55.74,-102.02C55.67,-102.02 55.59,-102.02 55.51,-102.02"/>
<polygon fill="black" stroke="black" points="65.36,-98.75 55.28,-102.01 65.2,-105.75 65.36,-98.75"/>
</g>
<!-- (3,2,14) -->
<g id="node16" class="node">
<title>(3,2,14)</title>
<ellipse fill="none" stroke="black" cx="55.13" cy="-55.77" rx="38.99" ry="18"/>
<text text-anchor="middle" x="55.13" y="-52.07" font-family="Times New Roman,serif" font-size="14.00">(3,2,14)</text>
</g>
<!-- SRGroup(3,1,2)&#45;&gt;(3,2,14) -->
<g id="edge14" class="edge">
<title>SRGroup(3,1,2)&#45;&gt;(3,2,14)</title>
<path fill="none" stroke="black" d="M100.72,-86.64C95.95,-83.42 90.92,-80.01 86,-76.67"/>
<polygon fill="black" stroke="black" points="87.6,-73.53 77.36,-70.82 83.68,-79.33 87.6,-73.53"/>
</g>
<!-- (3,2,15) -->
<g id="node17" class="node">
<title>(3,2,15)</title>
<ellipse fill="none" stroke="black" cx="209.82" cy="-80.65" rx="38.99" ry="18"/>
<text text-anchor="middle" x="209.82" y="-76.95" font-family="Times New Roman,serif" font-size="14.00">(3,2,15)</text>
</g>
<!-- SRGroup(3,1,2)&#45;&gt;(3,2,15) -->
<g id="edge15" class="edge">
<title>SRGroup(3,1,2)&#45;&gt;(3,2,15)</title>
<path fill="none" stroke="black" d="M174.21,-90.41C174.36,-90.37 174.5,-90.33 174.65,-90.29"/>
<polygon fill="black" stroke="black" points="167.24,-95.95 175.95,-89.93 165.39,-89.2 167.24,-95.95"/>
</g>
<!-- (3,2,16) -->
<g id="node18" class="node">
<title>(3,2,16)</title>
<ellipse fill="none" stroke="black" cx="91.87" cy="-24.57" rx="38.99" ry="18"/>
<text text-anchor="middle" x="91.87" y="-20.87" font-family="Times New Roman,serif" font-size="14.00">(3,2,16)</text>
</g>
<!-- SRGroup(3,1,2)&#45;&gt;(3,2,16) -->
<g id="edge16" class="edge">
<title>SRGroup(3,1,2)&#45;&gt;(3,2,16)</title>
<path fill="none" stroke="black" d="M118.14,-85.72C113.84,-75.71 108.39,-63.03 103.57,-51.82"/>
<polygon fill="black" stroke="black" points="106.71,-50.25 99.55,-42.45 100.28,-53.02 106.71,-50.25"/>
</g>
</g>
</svg>
