<?xml version="1.0" encoding="UTF-8" standalone="no"?>
<!DOCTYPE svg PUBLIC "-//W3C//DTD SVG 1.1//EN"
 "http://www.w3.org/Graphics/SVG/1.1/DTD/svg11.dtd">
<!-- Generated by graphviz version 2.46.0 (20210118.1747)
 -->
<!-- Title: G Pages: 1 -->
<svg width="841pt" height="771pt"
 viewBox="0.00 0.00 840.85 771.36" xmlns="http://www.w3.org/2000/svg" xmlns:xlink="http://www.w3.org/1999/xlink">
<g id="graph0" class="graph" transform="scale(1 1) rotate(0) translate(4 767.36)">
<title>G</title>
<polygon fill="white" stroke="transparent" points="-4,4 -4,-767.36 836.85,-767.36 836.85,4 -4,4"/>
<!-- (3,1,1) -->
<g id="node1" class="node">
<title>(3,1,1)</title>
<ellipse fill="none" stroke="black" cx="657.5" cy="-611.37" rx="34.39" ry="18"/>
<text text-anchor="middle" x="657.5" y="-607.67" font-family="Times New Roman,serif" font-size="14.00">(3,1,1)</text>
</g>
<!-- (3,2,1) -->
<g id="node2" class="node">
<title>(3,2,1)</title>
<ellipse fill="none" stroke="black" cx="798.4" cy="-611.37" rx="34.39" ry="18"/>
<text text-anchor="middle" x="798.4" y="-607.67" font-family="Times New Roman,serif" font-size="14.00">(3,2,1)</text>
</g>
<!-- (3,1,1)&#45;&gt;(3,2,1) -->
<g id="edge1" class="edge">
<title>(3,1,1)&#45;&gt;(3,2,1)</title>
<path fill="none" stroke="black" d="M691.97,-611.37C710.56,-611.37 733.73,-611.37 753.69,-611.37"/>
<polygon fill="black" stroke="black" points="753.8,-614.87 763.8,-611.37 753.8,-607.87 753.8,-614.87"/>
</g>
<!-- (3,2,2) -->
<g id="node3" class="node">
<title>(3,2,2)</title>
<ellipse fill="none" stroke="black" cx="701.04" cy="-745.36" rx="34.39" ry="18"/>
<text text-anchor="middle" x="701.04" y="-741.66" font-family="Times New Roman,serif" font-size="14.00">(3,2,2)</text>
</g>
<!-- (3,1,1)&#45;&gt;(3,2,2) -->
<g id="edge2" class="edge">
<title>(3,1,1)&#45;&gt;(3,2,2)</title>
<path fill="none" stroke="black" d="M663.29,-629.16C670.64,-651.79 683.41,-691.1 692.04,-717.66"/>
<polygon fill="black" stroke="black" points="688.82,-719.07 695.24,-727.5 695.48,-716.9 688.82,-719.07"/>
</g>
<!-- (3,2,3) -->
<g id="node4" class="node">
<title>(3,2,3)</title>
<ellipse fill="none" stroke="black" cx="543.52" cy="-694.18" rx="34.39" ry="18"/>
<text text-anchor="middle" x="543.52" y="-690.48" font-family="Times New Roman,serif" font-size="14.00">(3,2,3)</text>
</g>
<!-- (3,1,1)&#45;&gt;(3,2,3) -->
<g id="edge3" class="edge">
<title>(3,1,1)&#45;&gt;(3,2,3)</title>
<path fill="none" stroke="black" d="M637.39,-625.98C619.27,-639.15 592.44,-658.64 572.09,-673.42"/>
<polygon fill="black" stroke="black" points="569.85,-670.72 563.82,-679.43 573.96,-676.39 569.85,-670.72"/>
</g>
<!-- (3,2,4) -->
<g id="node5" class="node">
<title>(3,2,4)</title>
<ellipse fill="none" stroke="black" cx="543.52" cy="-528.55" rx="34.39" ry="18"/>
<text text-anchor="middle" x="543.52" y="-524.85" font-family="Times New Roman,serif" font-size="14.00">(3,2,4)</text>
</g>
<!-- (3,1,1)&#45;&gt;(3,2,4) -->
<g id="edge4" class="edge">
<title>(3,1,1)&#45;&gt;(3,2,4)</title>
<path fill="none" stroke="black" d="M637.39,-596.75C619.27,-583.59 592.44,-564.09 572.09,-549.31"/>
<polygon fill="black" stroke="black" points="573.96,-546.34 563.82,-543.3 569.85,-552.01 573.96,-546.34"/>
</g>
<!-- (3,2,5) -->
<g id="node6" class="node">
<title>(3,2,5)</title>
<ellipse fill="none" stroke="black" cx="701.04" cy="-477.37" rx="34.39" ry="18"/>
<text text-anchor="middle" x="701.04" y="-473.67" font-family="Times New Roman,serif" font-size="14.00">(3,2,5)</text>
</g>
<!-- (3,1,1)&#45;&gt;(3,2,5) -->
<g id="edge5" class="edge">
<title>(3,1,1)&#45;&gt;(3,2,5)</title>
<path fill="none" stroke="black" d="M663.29,-593.57C670.64,-570.95 683.41,-531.64 692.04,-505.07"/>
<polygon fill="black" stroke="black" points="695.48,-505.83 695.24,-495.24 688.82,-503.66 695.48,-505.83"/>
</g>
<!-- (3,1,2) -->
<g id="node7" class="node">
<title>(3,1,2)</title>
<ellipse fill="none" stroke="black" cx="288.5" cy="-271.37" rx="34.39" ry="18"/>
<text text-anchor="middle" x="288.5" y="-267.67" font-family="Times New Roman,serif" font-size="14.00">(3,1,2)</text>
</g>
<!-- (3,2,6) -->
<g id="node8" class="node">
<title>(3,2,6)</title>
<ellipse fill="none" stroke="black" cx="545.31" cy="-271.37" rx="34.39" ry="18"/>
<text text-anchor="middle" x="545.31" y="-267.67" font-family="Times New Roman,serif" font-size="14.00">(3,2,6)</text>
</g>
<!-- (3,1,2)&#45;&gt;(3,2,6) -->
<g id="edge6" class="edge">
<title>(3,1,2)&#45;&gt;(3,2,6)</title>
<path fill="none" stroke="black" d="M323.14,-271.37C369.02,-271.37 450.04,-271.37 500.52,-271.37"/>
<polygon fill="black" stroke="black" points="500.81,-274.87 510.81,-271.37 500.81,-267.87 500.81,-274.87"/>
</g>
<!-- (3,2,7) -->
<g id="node9" class="node">
<title>(3,2,7)</title>
<ellipse fill="none" stroke="black" cx="507.61" cy="-405.3" rx="34.39" ry="18"/>
<text text-anchor="middle" x="507.61" y="-401.6" font-family="Times New Roman,serif" font-size="14.00">(3,2,7)</text>
</g>
<!-- (3,1,2)&#45;&gt;(3,2,7) -->
<g id="edge7" class="edge">
<title>(3,1,2)&#45;&gt;(3,2,7)</title>
<path fill="none" stroke="black" d="M311.13,-285.19C350.51,-309.27 431.72,-358.91 476.42,-386.23"/>
<polygon fill="black" stroke="black" points="474.76,-389.31 485.11,-391.54 478.41,-383.34 474.76,-389.31"/>
</g>
<!-- (3,2,8) -->
<g id="node10" class="node">
<title>(3,2,8)</title>
<ellipse fill="none" stroke="black" cx="405.61" cy="-499.91" rx="34.39" ry="18"/>
<text text-anchor="middle" x="405.61" y="-496.21" font-family="Times New Roman,serif" font-size="14.00">(3,2,8)</text>
</g>
<!-- (3,1,2)&#45;&gt;(3,2,8) -->
<g id="edge8" class="edge">
<title>(3,1,2)&#45;&gt;(3,2,8)</title>
<path fill="none" stroke="black" d="M297.5,-288.92C317.89,-328.72 367.74,-426.02 391.96,-473.28"/>
<polygon fill="black" stroke="black" points="388.91,-475 396.58,-482.3 395.14,-471.8 388.91,-475"/>
</g>
<!-- (3,2,9) -->
<g id="node11" class="node">
<title>(3,2,9)</title>
<ellipse fill="none" stroke="black" cx="269.22" cy="-527.44" rx="34.39" ry="18"/>
<text text-anchor="middle" x="269.22" y="-523.74" font-family="Times New Roman,serif" font-size="14.00">(3,2,9)</text>
</g>
<!-- (3,1,2)&#45;&gt;(3,2,9) -->
<g id="edge9" class="edge">
<title>(3,1,2)&#45;&gt;(3,2,9)</title>
<path fill="none" stroke="black" d="M287.15,-289.37C283.84,-333.36 275.31,-446.54 271.33,-499.43"/>
<polygon fill="black" stroke="black" points="267.84,-499.22 270.58,-509.46 274.82,-499.75 267.84,-499.22"/>
</g>
<!-- (3,2,10) -->
<g id="node12" class="node">
<title>(3,2,10)</title>
<ellipse fill="none" stroke="black" cx="134.83" cy="-477.11" rx="38.99" ry="18"/>
<text text-anchor="middle" x="134.83" y="-473.41" font-family="Times New Roman,serif" font-size="14.00">(3,2,10)</text>
</g>
<!-- (3,1,2)&#45;&gt;(3,2,10) -->
<g id="edge10" class="edge">
<title>(3,1,2)&#45;&gt;(3,2,10)</title>
<path fill="none" stroke="black" d="M275.93,-288.2C248.97,-324.3 185.48,-409.29 153.68,-451.87"/>
<polygon fill="black" stroke="black" points="150.76,-449.94 147.58,-460.04 156.37,-454.12 150.76,-449.94"/>
</g>
<!-- (3,2,11) -->
<g id="node13" class="node">
<title>(3,2,11)</title>
<ellipse fill="none" stroke="black" cx="46.85" cy="-358.26" rx="38.99" ry="18"/>
<text text-anchor="middle" x="46.85" y="-354.56" font-family="Times New Roman,serif" font-size="14.00">(3,2,11)</text>
</g>
<!-- (3,1,2)&#45;&gt;(3,2,11) -->
<g id="edge11" class="edge">
<title>(3,1,2)&#45;&gt;(3,2,11)</title>
<path fill="none" stroke="black" d="M259.83,-281.68C217.03,-297.07 136.22,-326.13 87.38,-343.69"/>
<polygon fill="black" stroke="black" points="85.99,-340.47 77.77,-347.14 88.36,-347.05 85.99,-340.47"/>
</g>
<!-- (3,2,12) -->
<g id="node14" class="node">
<title>(3,2,12)</title>
<ellipse fill="none" stroke="black" cx="39" cy="-210.6" rx="38.99" ry="18"/>
<text text-anchor="middle" x="39" y="-206.9" font-family="Times New Roman,serif" font-size="14.00">(3,2,12)</text>
</g>
<!-- (3,1,2)&#45;&gt;(3,2,12) -->
<g id="edge12" class="edge">
<title>(3,1,2)&#45;&gt;(3,2,12)</title>
<path fill="none" stroke="black" d="M257.16,-263.73C213.32,-253.06 133.48,-233.61 83.5,-221.44"/>
<polygon fill="black" stroke="black" points="84.16,-218 73.62,-219.03 82.5,-224.8 84.16,-218"/>
</g>
<!-- (3,2,13) -->
<g id="node15" class="node">
<title>(3,2,13)</title>
<ellipse fill="none" stroke="black" cx="113.87" cy="-83.09" rx="38.99" ry="18"/>
<text text-anchor="middle" x="113.87" y="-79.39" font-family="Times New Roman,serif" font-size="14.00">(3,2,13)</text>
</g>
<!-- (3,1,2)&#45;&gt;(3,2,13) -->
<g id="edge13" class="edge">
<title>(3,1,2)&#45;&gt;(3,2,13)</title>
<path fill="none" stroke="black" d="M273.31,-254.99C242.56,-221.83 172.77,-146.6 136.59,-107.58"/>
<polygon fill="black" stroke="black" points="138.77,-104.78 129.4,-99.83 133.64,-109.54 138.77,-104.78"/>
</g>
<!-- (3,2,14) -->
<g id="node16" class="node">
<title>(3,2,14)</title>
<ellipse fill="none" stroke="black" cx="246.64" cy="-18" rx="38.99" ry="18"/>
<text text-anchor="middle" x="246.64" y="-14.3" font-family="Times New Roman,serif" font-size="14.00">(3,2,14)</text>
</g>
<!-- (3,1,2)&#45;&gt;(3,2,14) -->
<g id="edge14" class="edge">
<title>(3,1,2)&#45;&gt;(3,2,14)</title>
<path fill="none" stroke="black" d="M285.49,-253.14C278.27,-209.41 259.9,-98.26 251.27,-45.98"/>
<polygon fill="black" stroke="black" points="254.71,-45.35 249.63,-36.06 247.8,-46.49 254.71,-45.35"/>
</g>
<!-- (3,2,15) -->
<g id="node17" class="node">
<title>(3,2,15)</title>
<ellipse fill="none" stroke="black" cx="393.3" cy="-36.92" rx="38.99" ry="18"/>
<text text-anchor="middle" x="393.3" y="-33.22" font-family="Times New Roman,serif" font-size="14.00">(3,2,15)</text>
</g>
<!-- (3,1,2)&#45;&gt;(3,2,15) -->
<g id="edge15" class="edge">
<title>(3,1,2)&#45;&gt;(3,2,15)</title>
<path fill="none" stroke="black" d="M296.38,-253.74C314.55,-213.1 359.49,-112.55 381.19,-64"/>
<polygon fill="black" stroke="black" points="384.45,-65.3 385.33,-54.75 378.05,-62.45 384.45,-65.3"/>
</g>
<!-- (3,2,16) -->
<g id="node18" class="node">
<title>(3,2,16)</title>
<ellipse fill="none" stroke="black" cx="505.21" cy="-133.57" rx="38.99" ry="18"/>
<text text-anchor="middle" x="505.21" y="-129.87" font-family="Times New Roman,serif" font-size="14.00">(3,2,16)</text>
</g>
<!-- (3,1,2)&#45;&gt;(3,2,16) -->
<g id="edge16" class="edge">
<title>(3,1,2)&#45;&gt;(3,2,16)</title>
<path fill="none" stroke="black" d="M310.48,-257.4C349.03,-232.88 428.99,-182.03 473.53,-153.72"/>
<polygon fill="black" stroke="black" points="475.64,-156.52 482.2,-148.2 471.88,-150.62 475.64,-156.52"/>
</g>
</g>
</svg>
