<?xml version="1.0" encoding="UTF-8" standalone="no"?>
<!DOCTYPE svg PUBLIC "-//W3C//DTD SVG 1.1//EN"
 "http://www.w3.org/Graphics/SVG/1.1/DTD/svg11.dtd">
<!-- Generated by graphviz version 2.46.0 (20210118.1747)
 -->
<!-- Title: G Pages: 1 -->
<svg width="391pt" height="342pt"
 viewBox="0.00 0.00 390.69 341.74" xmlns="http://www.w3.org/2000/svg" xmlns:xlink="http://www.w3.org/1999/xlink">
<g id="graph0" class="graph" transform="scale(1 1) rotate(0) translate(4 337.74)">
<title>G</title>
<polygon fill="white" stroke="transparent" points="-4,4 -4,-337.74 386.69,-337.74 386.69,4 -4,4"/>
<!-- SRGroup(3,1,1) -->
<g id="node1" class="node">
<title>SRGroup(3,1,1)</title>
<ellipse fill="none" stroke="black" cx="290" cy="-247.27" rx="70.39" ry="18"/>
<text text-anchor="middle" x="290" y="-243.57" font-family="Times New Roman,serif" font-size="14.00">SRGroup(3,1,1)</text>
</g>
<!-- (3,2,1) -->
<g id="node2" class="node">
<title>(3,2,1)</title>
<ellipse fill="none" stroke="black" cx="348.25" cy="-289.59" rx="34.39" ry="18"/>
<text text-anchor="middle" x="348.25" y="-285.89" font-family="Times New Roman,serif" font-size="14.00">(3,2,1)</text>
</g>
<!-- SRGroup(3,1,1)&#45;&gt;(3,2,1) -->
<g id="edge1" class="edge">
<title>SRGroup(3,1,1)&#45;&gt;(3,2,1)</title>
<path fill="none" stroke="black" d="M313.69,-264.48C315.63,-265.89 317.61,-267.33 319.59,-268.77"/>
<polygon fill="black" stroke="black" points="317.97,-271.92 328.12,-274.96 322.09,-266.25 317.97,-271.92"/>
</g>
<!-- (3,2,2) -->
<g id="node3" class="node">
<title>(3,2,2)</title>
<ellipse fill="none" stroke="black" cx="267.75" cy="-315.74" rx="34.39" ry="18"/>
<text text-anchor="middle" x="267.75" y="-312.04" font-family="Times New Roman,serif" font-size="14.00">(3,2,2)</text>
</g>
<!-- SRGroup(3,1,1)&#45;&gt;(3,2,2) -->
<g id="edge2" class="edge">
<title>SRGroup(3,1,1)&#45;&gt;(3,2,2)</title>
<path fill="none" stroke="black" d="M284.15,-265.26C281.89,-272.2 279.26,-280.31 276.77,-287.96"/>
<polygon fill="black" stroke="black" points="273.39,-287.04 273.63,-297.63 280.05,-289.21 273.39,-287.04"/>
</g>
<!-- (3,2,3) -->
<g id="node4" class="node">
<title>(3,2,3)</title>
<ellipse fill="none" stroke="black" cx="218" cy="-247.27" rx="34.39" ry="18"/>
<text text-anchor="middle" x="218" y="-243.57" font-family="Times New Roman,serif" font-size="14.00">(3,2,3)</text>
</g>
<!-- SRGroup(3,1,1)&#45;&gt;(3,2,3) -->
<g id="edge3" class="edge">
<title>SRGroup(3,1,1)&#45;&gt;(3,2,3)</title>
<path fill="none" stroke="black" d="M219.78,-247.27C219.63,-247.27 219.5,-247.27 219.37,-247.27"/>
<polygon fill="black" stroke="black" points="228.46,-243.77 218.46,-247.27 228.46,-250.77 228.46,-243.77"/>
</g>
<!-- (3,2,4) -->
<g id="node5" class="node">
<title>(3,2,4)</title>
<ellipse fill="none" stroke="black" cx="267.75" cy="-178.79" rx="34.39" ry="18"/>
<text text-anchor="middle" x="267.75" y="-175.09" font-family="Times New Roman,serif" font-size="14.00">(3,2,4)</text>
</g>
<!-- SRGroup(3,1,1)&#45;&gt;(3,2,4) -->
<g id="edge4" class="edge">
<title>SRGroup(3,1,1)&#45;&gt;(3,2,4)</title>
<path fill="none" stroke="black" d="M284.15,-229.28C281.89,-222.33 279.26,-214.23 276.77,-206.57"/>
<polygon fill="black" stroke="black" points="280.05,-205.33 273.63,-196.9 273.39,-207.49 280.05,-205.33"/>
</g>
<!-- (3,2,5) -->
<g id="node6" class="node">
<title>(3,2,5)</title>
<ellipse fill="none" stroke="black" cx="348.25" cy="-204.95" rx="34.39" ry="18"/>
<text text-anchor="middle" x="348.25" y="-201.25" font-family="Times New Roman,serif" font-size="14.00">(3,2,5)</text>
</g>
<!-- SRGroup(3,1,1)&#45;&gt;(3,2,5) -->
<g id="edge5" class="edge">
<title>SRGroup(3,1,1)&#45;&gt;(3,2,5)</title>
<path fill="none" stroke="black" d="M313.69,-230.05C315.63,-228.64 317.61,-227.2 319.59,-225.77"/>
<polygon fill="black" stroke="black" points="322.09,-228.28 328.12,-219.57 317.97,-222.62 322.09,-228.28"/>
</g>
<!-- SRGroup(3,1,2) -->
<g id="node7" class="node">
<title>SRGroup(3,1,2)</title>
<ellipse fill="none" stroke="black" cx="111" cy="-89.27" rx="70.39" ry="18"/>
<text text-anchor="middle" x="111" y="-85.57" font-family="Times New Roman,serif" font-size="14.00">SRGroup(3,1,2)</text>
</g>
<!-- (3,2,6) -->
<g id="node8" class="node">
<title>(3,2,6)</title>
<ellipse fill="none" stroke="black" cx="180.08" cy="-109.55" rx="34.39" ry="18"/>
<text text-anchor="middle" x="180.08" y="-105.85" font-family="Times New Roman,serif" font-size="14.00">(3,2,6)</text>
</g>
<!-- SRGroup(3,1,2)&#45;&gt;(3,2,6) -->
<g id="edge6" class="edge">
<title>SRGroup(3,1,2)&#45;&gt;(3,2,6)</title>
<path fill="none" stroke="black" d="M157.46,-102.91C157.51,-102.92 157.56,-102.94 157.61,-102.95"/>
<polygon fill="black" stroke="black" points="147.17,-103.53 157.75,-103 149.14,-96.82 147.17,-103.53"/>
</g>
<!-- (3,2,7) -->
<g id="node9" class="node">
<title>(3,2,7)</title>
<ellipse fill="none" stroke="black" cx="158.15" cy="-143.68" rx="34.39" ry="18"/>
<text text-anchor="middle" x="158.15" y="-139.98" font-family="Times New Roman,serif" font-size="14.00">(3,2,7)</text>
</g>
<!-- SRGroup(3,1,2)&#45;&gt;(3,2,7) -->
<g id="edge7" class="edge">
<title>SRGroup(3,1,2)&#45;&gt;(3,2,7)</title>
<path fill="none" stroke="black" d="M126.44,-107.08C129.84,-111.01 133.5,-115.24 137.09,-119.38"/>
<polygon fill="black" stroke="black" points="134.6,-121.85 143.79,-127.11 139.89,-117.27 134.6,-121.85"/>
</g>
<!-- (3,2,8) -->
<g id="node10" class="node">
<title>(3,2,8)</title>
<ellipse fill="none" stroke="black" cx="121.24" cy="-160.53" rx="34.39" ry="18"/>
<text text-anchor="middle" x="121.24" y="-156.83" font-family="Times New Roman,serif" font-size="14.00">(3,2,8)</text>
</g>
<!-- SRGroup(3,1,2)&#45;&gt;(3,2,8) -->
<g id="edge8" class="edge">
<title>SRGroup(3,1,2)&#45;&gt;(3,2,8)</title>
<path fill="none" stroke="black" d="M113.64,-107.62C114.72,-115.16 116,-124.06 117.2,-132.39"/>
<polygon fill="black" stroke="black" points="113.76,-133.09 118.65,-142.49 120.69,-132.09 113.76,-133.09"/>
</g>
<!-- (3,2,9) -->
<g id="node11" class="node">
<title>(3,2,9)</title>
<ellipse fill="none" stroke="black" cx="81.09" cy="-154.76" rx="34.39" ry="18"/>
<text text-anchor="middle" x="81.09" y="-151.06" font-family="Times New Roman,serif" font-size="14.00">(3,2,9)</text>
</g>
<!-- SRGroup(3,1,2)&#45;&gt;(3,2,9) -->
<g id="edge9" class="edge">
<title>SRGroup(3,1,2)&#45;&gt;(3,2,9)</title>
<path fill="none" stroke="black" d="M102.82,-107.16C99.92,-113.52 96.59,-120.82 93.42,-127.76"/>
<polygon fill="black" stroke="black" points="90.22,-126.34 89.25,-136.89 96.59,-129.24 90.22,-126.34"/>
</g>
<!-- (3,2,10) -->
<g id="node12" class="node">
<title>(3,2,10)</title>
<ellipse fill="none" stroke="black" cx="50.43" cy="-128.19" rx="38.99" ry="18"/>
<text text-anchor="middle" x="50.43" y="-124.49" font-family="Times New Roman,serif" font-size="14.00">(3,2,10)</text>
</g>
<!-- SRGroup(3,1,2)&#45;&gt;(3,2,10) -->
<g id="edge10" class="edge">
<title>SRGroup(3,1,2)&#45;&gt;(3,2,10)</title>
<path fill="none" stroke="black" d="M84.96,-106C84,-106.62 83.03,-107.24 82.06,-107.86"/>
<polygon fill="black" stroke="black" points="79.91,-105.08 73.39,-113.44 83.69,-110.97 79.91,-105.08"/>
</g>
<!-- (3,2,11) -->
<g id="node13" class="node">
<title>(3,2,11)</title>
<ellipse fill="none" stroke="black" cx="39" cy="-89.27" rx="38.99" ry="18"/>
<text text-anchor="middle" x="39" y="-85.57" font-family="Times New Roman,serif" font-size="14.00">(3,2,11)</text>
</g>
<!-- SRGroup(3,1,2)&#45;&gt;(3,2,11) -->
<g id="edge11" class="edge">
<title>SRGroup(3,1,2)&#45;&gt;(3,2,11)</title>
<path fill="none" stroke="black" d="M40.78,-89.27C40.63,-89.27 40.5,-89.27 40.37,-89.27"/>
<polygon fill="black" stroke="black" points="49.46,-85.77 39.46,-89.27 49.46,-92.77 49.46,-85.77"/>
</g>
<!-- (3,2,12) -->
<g id="node14" class="node">
<title>(3,2,12)</title>
<ellipse fill="none" stroke="black" cx="50.43" cy="-50.34" rx="38.99" ry="18"/>
<text text-anchor="middle" x="50.43" y="-46.64" font-family="Times New Roman,serif" font-size="14.00">(3,2,12)</text>
</g>
<!-- SRGroup(3,1,2)&#45;&gt;(3,2,12) -->
<g id="edge12" class="edge">
<title>SRGroup(3,1,2)&#45;&gt;(3,2,12)</title>
<path fill="none" stroke="black" d="M84.96,-72.53C84,-71.91 83.03,-71.29 82.06,-70.67"/>
<polygon fill="black" stroke="black" points="83.69,-67.56 73.39,-65.1 79.91,-73.45 83.69,-67.56"/>
</g>
<!-- (3,2,13) -->
<g id="node15" class="node">
<title>(3,2,13)</title>
<ellipse fill="none" stroke="black" cx="81.09" cy="-23.77" rx="38.99" ry="18"/>
<text text-anchor="middle" x="81.09" y="-20.07" font-family="Times New Roman,serif" font-size="14.00">(3,2,13)</text>
</g>
<!-- SRGroup(3,1,2)&#45;&gt;(3,2,13) -->
<g id="edge13" class="edge">
<title>SRGroup(3,1,2)&#45;&gt;(3,2,13)</title>
<path fill="none" stroke="black" d="M102.82,-71.37C99.92,-65.02 96.59,-57.72 93.42,-50.77"/>
<polygon fill="black" stroke="black" points="96.59,-49.29 89.25,-41.65 90.22,-52.2 96.59,-49.29"/>
</g>
<!-- (3,2,14) -->
<g id="node16" class="node">
<title>(3,2,14)</title>
<ellipse fill="none" stroke="black" cx="121.24" cy="-18" rx="38.99" ry="18"/>
<text text-anchor="middle" x="121.24" y="-14.3" font-family="Times New Roman,serif" font-size="14.00">(3,2,14)</text>
</g>
<!-- SRGroup(3,1,2)&#45;&gt;(3,2,14) -->
<g id="edge14" class="edge">
<title>SRGroup(3,1,2)&#45;&gt;(3,2,14)</title>
<path fill="none" stroke="black" d="M113.64,-70.91C114.72,-63.37 116,-54.47 117.2,-46.14"/>
<polygon fill="black" stroke="black" points="120.69,-46.44 118.65,-36.04 113.76,-45.44 120.69,-46.44"/>
</g>
<!-- (3,2,15) -->
<g id="node17" class="node">
<title>(3,2,15)</title>
<ellipse fill="none" stroke="black" cx="158.15" cy="-34.85" rx="38.99" ry="18"/>
<text text-anchor="middle" x="158.15" y="-31.15" font-family="Times New Roman,serif" font-size="14.00">(3,2,15)</text>
</g>
<!-- SRGroup(3,1,2)&#45;&gt;(3,2,15) -->
<g id="edge15" class="edge">
<title>SRGroup(3,1,2)&#45;&gt;(3,2,15)</title>
<path fill="none" stroke="black" d="M126.44,-71.45C129.77,-67.6 133.36,-63.46 136.88,-59.4"/>
<polygon fill="black" stroke="black" points="139.57,-61.64 143.47,-51.79 134.28,-57.05 139.57,-61.64"/>
</g>
<!-- (3,2,16) -->
<g id="node18" class="node">
<title>(3,2,16)</title>
<ellipse fill="none" stroke="black" cx="180.08" cy="-68.98" rx="38.99" ry="18"/>
<text text-anchor="middle" x="180.08" y="-65.28" font-family="Times New Roman,serif" font-size="14.00">(3,2,16)</text>
</g>
<!-- SRGroup(3,1,2)&#45;&gt;(3,2,16) -->
<g id="edge16" class="edge">
<title>SRGroup(3,1,2)&#45;&gt;(3,2,16)</title>
<path fill="none" stroke="black" d="M157.46,-75.62C157.51,-75.61 157.56,-75.6 157.61,-75.58"/>
<polygon fill="black" stroke="black" points="149.14,-81.72 157.75,-75.54 147.17,-75 149.14,-81.72"/>
</g>
</g>
</svg>
